<?xml version="1.0" encoding="UTF-8"?>
<svg width="1000px" height="289px" viewBox="0 0 1000 289" version="1.1" xmlns="http://www.w3.org/2000/svg" xmlns:xlink="http://www.w3.org/1999/xlink">
  <title>Header Layout default design</title>
  <desc>The default Beaver Themer Header layout which is added to the page when you first create a header layout.</desc>
    <defs>
        <path d="M2.61477273,17 L2.61477273,9.39648438 L0,9.39648438 L0,6.375 L2.61477273,6.375 L2.61477273,3.99433594 C2.61477273,1.4078125 4.2375,0 6.60681818,0 C7.74204545,0 8.71704545,0.0830078125 9,0.11953125 L9,2.82226562 L7.35681818,2.82226562 C6.06818182,2.82226562 5.81931818,3.41992188 5.81931818,4.29316406 L5.81931818,6.375 L8.72727273,6.375 L8.32840909,9.39648438 L5.81931818,9.39648438 L5.81931818,17" id="path-1"></path>
        <path d="M15.2525195,5.03472266 C15.2633105,5.18573047 15.2633105,5.33677148 15.2633105,5.4877793 C15.2633105,10.0937168 11.757625,15.4008379 5.35025195,15.4008379 C3.37625977,15.4008379 1.54251758,14.8291133 0,13.8367715 C0.280466797,13.8691113 0.550109375,13.8799023 0.841367187,13.8799023 C2.47014648,13.8799023 3.9695332,13.329793 5.16687109,12.3913398 C3.63514453,12.3589668 2.35151172,11.3558008 1.90924609,9.97508203 C2.125,10.0074219 2.3407207,10.0290039 2.56726563,10.0290039 C2.88007227,10.0290039 3.19291211,9.98583984 3.48413672,9.91036914 C1.88769727,9.58673828 0.690326172,8.1844707 0.690326172,6.49094531 L0.690326172,6.44781445 C1.15414063,6.70669922 1.69352539,6.86849805 2.26518359,6.89004687 C1.32673047,6.26440039 0.711908203,5.19652148 0.711908203,3.98839258 C0.711908203,3.34119727 0.884464844,2.74792383 1.18651367,2.2301543 C2.90162109,4.34436328 5.47967773,5.72504883 8.37050781,5.87608984 C8.31658594,5.61720508 8.28421289,5.3475625 8.28421289,5.07788672 C8.28421289,3.15781641 9.83752148,1.59375 11.7683496,1.59375 C12.7715156,1.59375 13.6775957,2.01443359 14.3140332,2.69400195 C15.1014453,2.54299414 15.8565176,2.25173633 16.5253281,1.85263477 C16.2664102,2.66166211 15.7163008,3.34123047 14.9936016,3.77267187 C15.694752,3.69720117 16.3743203,3.50299609 16.9999336,3.23335352 C16.5253945,3.92367969 15.9320879,4.53850195 15.2525195,5.03472266 Z" id="path-3"></path>
        <path d="M8.8984375,0.19921875 C5.49179688,0.19921875 2.125,2.4703125 2.125,6.14589844 C2.125,8.48339844 3.43984375,9.81152344 4.23671875,9.81152344 C4.56542969,9.81152344 4.7546875,8.89511719 4.7546875,8.63613281 C4.7546875,8.32734375 3.96777344,7.66992188 3.96777344,6.38496094 C3.96777344,3.71542969 5.99980469,1.82285156 8.62949219,1.82285156 C10.890625,1.82285156 12.5640625,3.1078125 12.5640625,5.46855469 C12.5640625,7.23164062 11.8568359,10.5386719 9.56582031,10.5386719 C8.7390625,10.5386719 8.03183594,9.94101562 8.03183594,9.084375 C8.03183594,7.82929687 8.90839844,6.6140625 8.90839844,5.31914062 C8.90839844,3.12109375 5.790625,3.51953125 5.790625,6.17578125 C5.790625,6.73359375 5.86035156,7.35117187 6.109375,7.85917969 C5.65117187,9.83144531 4.71484375,12.7699219 4.71484375,14.8019531 C4.71484375,15.4294922 4.80449219,16.0470703 4.86425781,16.6746094 C4.97714844,16.8007812 4.92070312,16.7875 5.09335937,16.7244141 C6.76679687,14.4333984 6.70703125,13.9851562 7.4640625,10.9869141 C7.87246094,11.7638672 8.92832031,12.1822266 9.76503906,12.1822266 C13.2912109,12.1822266 14.875,8.74570312 14.875,5.64785156 C14.875,2.35078125 12.0261719,0.19921875 8.8984375,0.19921875 Z" id="path-5"></path>
        <path d="M6.66568298,10.7570743 C6.63247986,10.7670353 3.03990173,11.9424259 2.82076111,11.9424259 C2.31607361,11.9125431 2.2065033,11.4045353 2.16001892,10.9064884 C2.11021423,10.435004 2.11353455,9.91703529 2.16997986,9.35258216 C2.2330658,8.72836341 2.35259705,7.85512122 2.97349548,7.89164466 C3.13287048,7.89164466 5.20142517,8.7516056 6.71548767,9.36586341 C7.28326111,9.59164466 7.3330658,10.5545353 6.66568298,10.7570743 L6.66568298,10.7570743 Z M8.58814392,6.97523841 C8.64790955,8.24359779 7.74146423,8.58558997 7.02095642,7.4500431 L3.49146423,1.8719181 C3.44165955,1.65277747 3.50142517,1.46019935 3.6674408,1.29418372 C4.18540955,0.746332162 6.96783142,-0.027300651 7.70162048,0.161957162 C7.95064392,0.225043099 8.1033783,0.364496224 8.15982361,0.580316537 C8.20298767,0.855902474 8.54165955,6.13851966 8.58814392,6.97523841 Z M8.54165955,12.4471134 C8.54165955,12.5998478 8.54830017,16.3119572 8.48521423,16.4812931 C8.40884705,16.6805118 8.25279236,16.8033634 8.01040955,16.8531681 C7.67505798,16.9096134 7.11060486,16.7900822 6.31705017,16.4978947 C5.58658142,16.2289493 4.43443298,15.7840275 4.68013611,15.0867618 C4.77310486,14.8576603 6.38677673,13.0016056 7.24673767,11.9789493 C7.64517517,11.4742618 8.56822205,11.7963322 8.54165955,12.4471134 Z M14.5248627,8.53578529 C14.3389252,8.65863685 10.8459564,9.47211341 10.6035736,9.55180091 L10.6135345,9.53187904 C10.012558,9.68793372 9.43814392,8.91762122 9.83990173,8.38305091 C9.9627533,8.26019935 12.0279877,5.31508216 12.2570892,5.16234779 C12.4297455,5.04281654 12.6322845,5.03617591 12.8647064,5.14242591 C13.4756439,5.43461341 14.6941986,7.2375431 14.7705658,7.95141029 C14.7672455,8.04769935 14.8104095,8.33988685 14.5248627,8.53578529 Z M14.8602142,12.8754337 C14.7705658,13.5594181 13.3826752,15.3125431 12.7418549,15.5648868 C12.5127533,15.651215 12.3135345,15.6312931 12.1541595,15.4984806 C11.9881439,15.3822697 10.1022064,12.2744572 9.99927673,12.1018009 C9.63736267,11.5639103 10.225058,10.7803165 10.8492767,10.9994572 C10.8492767,10.9994572 14.518222,12.1848087 14.6576752,12.3076603 C14.8303314,12.4437931 14.8967377,12.6330509 14.8602142,12.8754337 Z" id="path-7"></path>
        <path d="M14.875,1.0625 L2.12167969,1.0625 C1.53730469,1.0625 1.0625,1.54394531 1.0625,2.13496094 L1.0625,14.8650391 C1.0625,15.4560547 1.53730469,15.9375 2.12167969,15.9375 L14.875,15.9375 C15.459375,15.9375 15.9375,15.4560547 15.9375,14.8650391 L15.9375,2.13496094 C15.9375,1.54394531 15.459375,1.0625 14.875,1.0625 Z M5.55820313,13.8125 L3.35351562,13.8125 L3.35351562,6.71367187 L5.56152344,6.71367187 L5.56152344,13.8125 L5.55820313,13.8125 Z M4.45585938,5.74414062 C3.74863281,5.74414062 3.17753906,5.16972656 3.17753906,4.46582031 C3.17753906,3.76191406 3.74863281,3.1875 4.45585938,3.1875 C5.15976563,3.1875 5.73417969,3.76191406 5.73417969,4.46582031 C5.73417969,5.17304688 5.16308594,5.74414062 4.45585937,5.74414062 L4.45585938,5.74414062 Z M13.8224609,13.8125 L11.6177734,13.8125 L11.6177734,10.359375 C11.6177734,9.5359375 11.6011719,8.47675781 10.4722656,8.47675781 C9.3234375,8.47675781 9.14746094,9.37324219 9.14746094,10.2996094 L9.14746094,13.8125 L6.94277344,13.8125 L6.94277344,6.71367188 L9.0578125,6.71367188 L9.0578125,7.68320312 L9.08769531,7.68320312 C9.38320312,7.12539062 10.1037109,6.53769531 11.1761719,6.53769531 C13.4074219,6.53769531 13.8224609,8.00859375 13.8224609,9.92109375 L13.8224609,13.8125 L13.8224609,13.8125 Z" id="path-9"></path>
        <path d="M8.5,0.265625 C3.95449219,0.265625 0.265625,3.95449219 0.265625,8.5 C0.265625,13.0455078 3.95449219,16.734375 8.5,16.734375 C13.0455078,16.734375 16.734375,13.0455078 16.734375,8.5 C16.734375,3.95449219 13.0455078,0.265625 8.5,0.265625 Z M6.15253906,12.6171875 C3.86816406,12.6171875 2.03535156,10.7744141 2.03535156,8.5 C2.03535156,6.22558594 3.86816406,4.3828125 6.15253906,4.3828125 C7.19179688,4.3828125 8.14804688,4.74804688 8.90839844,5.45527344 L7.79277344,6.53769531 C7.35449219,6.109375 6.75351563,5.90351563 6.15253906,5.90351563 C4.728125,5.90351563 3.58925781,7.08222656 3.58925781,8.49667969 C3.58925781,9.91113281 4.72480469,11.0898438 6.15253906,11.0898438 C7.23496094,11.0898438 8.30742188,10.4556641 8.48007813,9.32011719 L6.15253906,9.32011719 L6.15253906,7.90566406 L10.0339844,7.90566406 C10.0771484,8.13144531 10.0970703,8.35722656 10.0970703,8.59296875 C10.0970703,10.94375 8.51992188,12.6171875 6.15253906,12.6171875 Z M13.7958984,9.09101563 L13.7958984,10.2697266 L12.6171875,10.2697266 L12.6171875,9.09101563 L11.4384766,9.09101563 L11.4384766,7.91230469 L12.6171875,7.91230469 L12.6171875,6.73359375 L13.7958984,6.73359375 L13.7958984,7.91230469 L14.9646484,7.91230469 L14.9646484,9.09101563 L13.7958984,9.09101563 Z" id="path-11"></path>
    </defs>
    <g id="Page-1" stroke="none" stroke-width="1" fill="none" fill-rule="evenodd">
        <rect id="Rectangle" fill="#296BC9" x="0" y="104" width="1000" height="100"></rect>
        <rect id="Rectangle" fill="#FFFFFF" x="0" y="64" width="1000" height="40"></rect>
        <text id="My-Website" font-family="HelveticaNeue-Bold, Helvetica Neue" font-size="36" font-weight="bold" fill="#FFFFFF">
            <tspan x="49" y="168">My Website</tspan>
        </text>
        <g id="Group" transform="translate(694.000000, 146.000000)" fill="#FFFFFF" font-family="HelveticaNeue, Helvetica Neue" font-size="16" font-weight="normal">
            <text id="Blog">
                <tspan x="0.12" y="15">Blog</tspan>
            </text>
            <text id="Store">
                <tspan x="60.776" y="15">Store</tspan>
            </text>
            <text id="About">
                <tspan x="127.024" y="15">About</tspan>
            </text>
            <text id="Contact">
                <tspan x="199.104" y="15">Contact</tspan>
            </text>
        </g>
        <text id="1-800-999-9999-—-hi@" font-family="HelveticaNeue, Helvetica Neue" font-size="16" font-weight="normal" fill="#57606F">
            <tspan x="49" y="91">1-800-999-9999 — hi@loremipsum.com</tspan>
        </text>
        <g id="facebook-f" transform="translate(805.000000, 76.000000)">
            <mask id="mask-2" fill="white">
                <use xlink:href="#path-1"></use>
            </mask>
            <use id="Mask" fill="#000000" fill-rule="nonzero" xlink:href="#path-1"></use>
            <g id="Color/Purple" mask="url(#mask-2)" fill="#9B9B9B">
                <g transform="translate(-4.000000, 0.000000)" id="Purple">
                    <rect x="0" y="0" width="17" height="17"></rect>
                </g>
            </g>
        </g>
        <g id="Brands/twitter" transform="translate(824.000000, 76.000000)">
            <mask id="mask-4" fill="white">
                <use xlink:href="#path-3"></use>
            </mask>
            <use id="Mask" fill="#000000" fill-rule="nonzero" xlink:href="#path-3"></use>
            <g id="Color/Purple" mask="url(#mask-4)" fill="#9B9B9B" fill-rule="evenodd">
                <rect id="Purple" x="0" y="0" width="17" height="17"></rect>
            </g>
        </g>
        <g id="Brands/pinterest-p" transform="translate(851.000000, 76.000000)">
            <mask id="mask-6" fill="white">
                <use xlink:href="#path-5"></use>
            </mask>
            <use id="Mask" fill="#000000" fill-rule="nonzero" xlink:href="#path-5"></use>
            <g id="Color/Purple" mask="url(#mask-6)" fill="#9B9B9B" fill-rule="evenodd">
                <rect id="Purple" x="0" y="0" width="17" height="17"></rect>
            </g>
        </g>
        <g id="Brands/yelp" transform="translate(878.000000, 76.000000)">
            <mask id="mask-8" fill="white">
                <use xlink:href="#path-7"></use>
            </mask>
            <use id="Mask" fill="#000000" fill-rule="nonzero" xlink:href="#path-7"></use>
            <g id="Color/Purple" mask="url(#mask-8)" fill="#9B9B9B" fill-rule="evenodd">
                <rect id="Purple" x="0" y="0" width="17" height="17"></rect>
            </g>
        </g>
        <g id="Brands/linkedin" transform="translate(906.000000, 76.000000)">
            <mask id="mask-10" fill="white">
                <use xlink:href="#path-9"></use>
            </mask>
            <use id="Mask" fill="#000000" fill-rule="nonzero" xlink:href="#path-9"></use>
            <g id="Color/Purple" mask="url(#mask-10)" fill="#9B9B9B" fill-rule="evenodd">
                <rect id="Purple" x="0" y="0" width="17" height="17"></rect>
            </g>
        </g>
        <g id="Brands/google-plus" transform="translate(933.000000, 76.000000)">
            <mask id="mask-12" fill="white">
                <use xlink:href="#path-11"></use>
            </mask>
            <use id="Mask" fill="#000000" fill-rule="nonzero" xlink:href="#path-11"></use>
            <g id="Color/Purple" mask="url(#mask-12)" fill="#9B9B9B" fill-rule="evenodd">
                <rect id="Purple" x="0" y="0" width="17" height="17"></rect>
            </g>
        </g>
        <rect id="Rectangle" stroke="#ED531E" stroke-width="6" x="41" y="69" width="311" height="30"></rect>
        <line x1="196.5" y1="66.5" x2="196.5" y2="29.5" id="Line" stroke="#ED531E" stroke-width="5" fill-opacity="0.301518794" fill="#ED531E" stroke-linecap="square"></line>
        <rect id="Rectangle" stroke="#ED531E" stroke-width="6" x="16" y="127" width="311" height="57"></rect>
        <line x1="171.5" y1="264.5" x2="171.5" y2="187" id="Line" stroke="#ED531E" stroke-width="5" fill-opacity="0.301518794" fill="#ED531E" stroke-linecap="square"></line>
        <text id="HTML-Module" font-family="HelveticaNeue-Bold, Helvetica Neue" font-size="22" font-weight="bold" fill="#333333">
            <tspan x="123.952" y="17">HTML Module</tspan>
        </text>
        <text id="Heading-Module" font-family="HelveticaNeue-Bold, Helvetica Neue" font-size="22" font-weight="bold" fill="#333333">
            <tspan x="86.532" y="284">Heading Module</tspan>
        </text>
        <rect id="Rectangle" stroke="#ED531E" stroke-width="6" x="666" y="127" width="311" height="57"></rect>
        <line x1="821.5" y1="260.5" x2="821.5" y2="186.5" id="Line" stroke="#ED531E" stroke-width="5" fill-opacity="0.301518794" fill="#ED531E" stroke-linecap="square"></line>
        <text id="Menu-Module" font-family="HelveticaNeue-Bold, Helvetica Neue" font-size="22" font-weight="bold" fill="#333333">
            <tspan x="750.022" y="284">Menu Module</tspan>
        </text>
        <rect id="Rectangle" stroke="#ED531E" stroke-width="6" x="760" y="69" width="210" height="30"></rect>
        <line x1="876.5" y1="67" x2="876.5" y2="30" id="Line" stroke="#ED531E" stroke-width="5" fill-opacity="0.301518794" fill="#ED531E" stroke-linecap="square"></line>
        <text id="Icon-Group-Module" font-family="HelveticaNeue-Bold, Helvetica Neue" font-size="22" font-weight="bold" fill="#333333">
            <tspan x="765.184" y="17">Icon Group Module</tspan>
        </text>
    </g>
</svg>
